<svg width="186" height="40" viewBox="0 0 186 40" fill="none" xmlns="http://www.w3.org/2000/svg">
<path fill-rule="evenodd" clip-rule="evenodd" d="M4.43345 25.9707C4.62366 25.6932 5.76885 24.8439 6.08997 24.5631C7.71126 23.1443 9.44499 21.3462 10.8973 19.7434C11.9301 18.6038 12.9304 17.4978 13.9961 16.4197C16.531 13.8558 19.2331 11.9279 22.4673 14.5394C23.1616 15.1 23.5039 15.5744 24.0779 16.1378C25.5767 17.608 27.7742 20.4618 29.8615 18.2659C30.5407 17.5515 32.087 14.9064 33.5891 16.4712C34.9094 17.8469 33.1449 19.3636 32.1044 20.3997C29.1051 23.386 26.3353 22.6117 23.4782 20.0545L20.3011 16.803C18.9209 15.754 16.8359 18.1126 16.3301 18.6452C15.2784 19.7535 14.273 20.7834 13.1978 21.9348C12.1186 23.0901 11.1922 24.1373 10.0788 25.2378L6.74957 28.3276L11.534 33.1724C13.1911 34.8088 14.7855 36.3675 16.4224 38.0234C17.1441 38.7535 17.9072 39.7118 19.3142 39.944C21.5291 40.3099 22.8074 38.8083 24.0438 37.5988L27.6965 33.865C29.3228 32.2253 30.8629 30.6656 32.4769 29.0141L34.8876 26.6107C35.9097 25.4828 39.0661 22.6128 39.5859 21.5678C40.2404 20.2508 39.879 18.6682 39.164 17.7412C38.3002 16.6211 25.6203 4.16893 24.6268 3.17479C22.8293 1.37616 21.2337 -0.754778 18.5002 0.264538C17.2308 0.737831 14.7777 3.60389 13.4193 4.92642C11.7303 6.57008 10.5577 7.89598 8.61141 9.74999C7.76441 10.5567 6.97055 11.3735 6.23432 12.1875C4.97947 13.5749 2.80153 15.5817 1.36319 17.0598C0.66276 17.7798 -0.172494 19.048 0.0311458 20.6027C0.226953 22.0987 1.14724 22.7857 1.93551 23.5108C2.19173 23.7463 2.31034 23.908 2.50782 24.115L4.23988 25.8067C4.35233 25.9074 4.31205 25.8783 4.43233 25.9701L4.43345 25.9707Z" fill="#FF0000"/>
<path d="M51.9305 12.608H63.5803C63.6042 13.3216 63.6354 13.994 63.6692 14.6293C63.7037 15.2639 63.7408 15.882 63.7893 16.4787L63.1062 16.4894C62.9523 15.2746 62.633 14.4615 62.1524 14.0491C61.6684 13.6376 60.7664 13.4319 59.4488 13.4319H56.2546V19.3411H57.7813C58.7048 19.3411 59.2874 19.2004 59.5278 18.9189C59.7681 18.6374 59.9121 18.0169 59.9599 17.0556H60.6397C60.6331 17.3099 60.6224 17.6597 60.6084 18.1025C60.5746 18.9609 60.5574 19.5164 60.5574 19.774C60.5574 20.3024 60.5812 21.1978 60.6224 22.4612C60.629 22.6496 60.6331 22.7904 60.6397 22.8834H59.9599C59.9047 21.7303 59.7467 20.9888 59.4825 20.6596C59.2183 20.3304 58.6488 20.1658 57.7805 20.1658H56.2538V24.8636C56.2538 25.6388 56.36 26.1195 56.5764 26.3088C56.7896 26.4972 57.3484 26.5902 58.2513 26.5902V27.3935H51.9305L51.9412 26.5902C52.686 26.5762 53.1527 26.4734 53.3477 26.2849C53.5428 26.0931 53.6391 25.6191 53.6391 24.8644V15.1635C53.6391 14.3981 53.5395 13.9249 53.3436 13.7356C53.1445 13.5471 52.6745 13.4475 51.9297 13.4335V12.6105L51.9305 12.608ZM72.217 13.2459C70.8895 13.2459 69.8393 13.8467 69.0665 15.0507C68.2945 16.2515 67.9102 17.9025 67.9102 19.9987C67.9102 22.1295 68.3019 23.7903 69.0805 24.9845C69.8624 26.1754 70.9537 26.7721 72.3569 26.7721C73.6787 26.7721 74.728 26.1647 75.5107 24.9467C76.2893 23.7319 76.6811 22.0817 76.6811 19.9987C76.6811 17.8745 76.286 16.2169 75.4935 15.0302C74.7042 13.8393 73.6096 13.2459 72.2162 13.2459H72.217ZM72.3372 12.4229C74.4886 12.4229 76.2284 13.1191 77.5633 14.5158C78.8983 15.9091 79.5641 17.7379 79.5641 20.0028C79.5641 22.2027 78.8744 24.0142 77.495 25.438C76.1124 26.8618 74.3659 27.5762 72.2549 27.5762C70.1167 27.5762 68.3777 26.8865 67.0394 25.503C65.6979 24.1237 65.0288 22.3221 65.0288 20.1057C65.0288 17.8515 65.7152 16.0087 67.0839 14.5742C68.4534 13.1397 70.2064 12.4229 72.3372 12.4229ZM81.4167 12.608C82.0998 12.6492 82.6932 12.6796 83.1944 12.7002C83.6989 12.7208 84.0997 12.7315 84.4018 12.7315C84.9713 12.7315 85.9359 12.6969 87.2947 12.6286C87.4971 12.6146 87.6445 12.608 87.7375 12.608V13.431H87.5383C86.7597 13.431 86.2684 13.5273 86.056 13.7158C85.847 13.9076 85.7408 14.3882 85.7408 15.161V26.5055H88.9761C90.3143 26.5055 91.241 26.2413 91.7521 25.7162C92.2599 25.1911 92.5858 24.1451 92.7266 22.5764H93.4607L93.0698 27.4528C91.776 27.4182 90.5884 27.391 89.5111 27.3737C88.4304 27.3565 87.6132 27.3499 87.0576 27.3499C85.9046 27.3499 84.1071 27.3639 81.6669 27.391H81.4167V26.5845C82.1615 26.5845 82.6315 26.4882 82.8306 26.2898C83.0265 26.0907 83.1261 25.6133 83.1261 24.8586V15.1619C83.1261 14.3964 83.0265 13.9232 82.8306 13.7339C82.6315 13.5454 82.1615 13.4459 81.4167 13.4319V12.6089V12.608ZM94.5553 12.608C94.7817 12.6146 95.101 12.6286 95.5092 12.6492C96.5355 12.7043 97.2219 12.7315 97.561 12.7315C98.0103 12.7315 98.8342 12.7002 100.028 12.6385C100.33 12.6245 100.557 12.6146 100.711 12.608L100.722 13.431C99.9436 13.431 99.4523 13.5273 99.2465 13.7224C99.044 13.9183 98.9412 14.3948 98.9412 15.1602V24.857C98.9412 25.6495 99.044 26.1335 99.2465 26.3153C99.4523 26.4972 99.9428 26.5869 100.722 26.5869V27.3902C99.8572 27.3491 99.2054 27.3252 98.7659 27.3112C98.3272 27.2972 97.9766 27.2906 97.7124 27.2906C97.4178 27.2906 97.04 27.2972 96.5767 27.3112C96.1133 27.3252 95.4409 27.3491 94.5553 27.3902V26.5869C95.3413 26.5869 95.8318 26.4906 96.031 26.2956C96.2269 26.0997 96.3265 25.6232 96.3265 24.8578V15.161C96.3265 14.3825 96.2269 13.9018 96.0244 13.7133C95.8219 13.524 95.3347 13.4319 94.5553 13.4319V12.6089V12.608Z" fill="#000066"/>
<path d="M102.365 12.6089H115.294L115.706 16.5272H115.043C114.875 15.3297 114.569 14.5125 114.13 14.0804C113.688 13.6475 112.926 13.4319 111.842 13.4319H110.146V24.8586C110.146 25.6372 110.246 26.1178 110.445 26.3071C110.64 26.4956 111.121 26.5886 111.88 26.5886H112.103V27.3919C111.498 27.3573 110.926 27.3334 110.383 27.3161C109.841 27.2989 109.35 27.2923 108.915 27.2923C108.613 27.2923 108.225 27.2989 107.755 27.3128C107.282 27.3268 106.555 27.3507 105.576 27.3919V26.5886H105.806C106.547 26.5886 107.018 26.4956 107.216 26.3071C107.412 26.1178 107.512 25.638 107.512 24.8586V13.4319H105.827C104.732 13.4319 103.964 13.6483 103.518 14.0837C103.072 14.5199 102.77 15.3363 102.608 16.5272H101.953L102.365 12.6089ZM121.33 19.5469C121.492 19.5534 121.656 19.5576 121.824 19.5609C121.992 19.5642 122.194 19.5674 122.438 19.5674C123.659 19.5674 124.542 19.3172 125.084 18.8127C125.63 18.3115 125.901 17.505 125.901 16.3939C125.901 15.3709 125.634 14.6162 125.101 14.1355C124.566 13.6516 123.725 13.4113 122.579 13.4113C122.343 13.4113 121.965 13.4253 121.44 13.4524C121.389 13.4524 121.347 13.4557 121.32 13.4631L121.33 19.5469ZM117.006 12.6089C117.455 12.6294 117.906 12.6426 118.358 12.6533C118.811 12.664 119.268 12.6706 119.731 12.6706C120.112 12.6706 120.668 12.6599 121.399 12.6401C122.129 12.6195 122.668 12.6097 123.018 12.6097C124.882 12.6097 126.275 12.9084 127.194 13.5051C128.118 14.1018 128.577 15.0014 128.577 16.2087C128.577 17.3963 128.213 18.2951 127.482 18.9025C126.751 19.5131 125.616 19.867 124.072 19.9592C125.468 20.0522 126.463 20.337 127.06 20.8102C127.658 21.2843 128.025 22.0834 128.165 23.2093C128.207 23.5039 128.241 23.9163 128.265 24.4479C128.327 25.638 128.632 26.2355 129.181 26.2355C129.462 26.2355 129.689 26.1425 129.853 25.954C130.021 25.7689 130.145 25.4668 130.227 25.0479L130.8 25.1508C130.68 25.9738 130.406 26.5853 129.98 26.9795C129.555 27.3746 128.955 27.5729 128.186 27.5729C127.308 27.5729 126.672 27.3433 126.285 26.8865C125.893 26.4306 125.701 25.6825 125.701 24.6356C125.701 24.5088 125.701 24.3228 125.709 24.0833C125.715 23.8397 125.719 23.6545 125.719 23.5204C125.719 22.2645 125.482 21.4341 125.012 21.0258C124.538 20.6176 123.663 20.4119 122.38 20.4119H121.32V24.8586C121.32 25.6273 121.419 26.1112 121.618 26.2997C121.817 26.4915 122.284 26.5878 123.018 26.5878V27.391C122.194 27.3499 121.566 27.326 121.138 27.312C120.709 27.298 120.366 27.2914 120.101 27.2914C119.813 27.2914 119.446 27.298 118.996 27.312C118.547 27.326 117.884 27.3499 117.006 27.391V26.5878C117.751 26.5878 118.221 26.4882 118.42 26.2923C118.616 26.0931 118.715 25.6166 118.715 24.8578V15.1569C118.715 14.3948 118.616 13.9183 118.42 13.7331C118.221 13.5446 117.751 13.445 117.006 13.431V12.608V12.6089ZM136.994 15.738L135.021 21.2349H138.854L136.994 15.738ZM137.344 12.4229H138.442L143.199 25.4997C143.36 25.9425 143.545 26.2339 143.758 26.3746C143.967 26.5154 144.307 26.5878 144.777 26.5878V27.391C143.919 27.3499 143.295 27.326 142.9 27.312C142.509 27.298 142.196 27.2914 141.959 27.2914C141.671 27.2914 141.301 27.298 140.844 27.312C140.387 27.326 139.739 27.3499 138.894 27.391V26.5878C139.402 26.5738 139.766 26.5055 139.986 26.382C140.202 26.2586 140.311 26.0594 140.311 25.7812C140.311 25.6882 140.305 25.6026 140.294 25.5203C140.283 25.4413 140.27 25.3697 140.25 25.308L139.155 22.0587H134.773L133.926 24.4438C133.912 24.485 133.894 24.5368 133.874 24.5944C133.671 25.1639 133.572 25.5623 133.572 25.782C133.572 26.0635 133.651 26.2627 133.809 26.3721C133.967 26.4816 134.289 26.554 134.773 26.5886V27.3919C134.41 27.3647 134.063 27.3441 133.73 27.3301C133.401 27.3203 133.095 27.3128 132.82 27.3128C132.587 27.3128 132.309 27.3203 131.99 27.3301C131.675 27.3441 131.327 27.3647 130.96 27.3919V26.5886C131.416 26.5886 131.75 26.517 131.955 26.3754C132.164 26.2347 132.353 25.9195 132.528 25.4322L137.343 12.4237L137.344 12.4229ZM157.36 14.231L157.542 13.2047H158.205C158.198 13.3142 158.191 13.4656 158.184 13.6681C158.146 14.7281 158.126 15.4762 158.126 15.919C158.126 16.1799 158.132 16.677 158.146 17.4078C158.153 17.7165 158.16 17.9535 158.167 18.1214H157.48C157.36 16.5807 156.911 15.3832 156.135 14.5289C155.356 13.6746 154.33 13.2459 153.057 13.2459C151.505 13.2459 150.339 13.7981 149.556 14.9034C148.77 16.012 148.379 17.6523 148.379 19.8308C148.379 22.0102 148.802 23.6669 149.645 24.8101C150.49 25.9532 151.714 26.526 153.317 26.526C154.422 26.526 155.351 26.238 156.103 25.6619C156.854 25.0849 157.359 24.2685 157.619 23.2085H158.385C158.173 24.6051 157.565 25.6824 156.567 26.4413C155.568 27.1993 154.267 27.577 152.665 27.577C150.493 27.577 148.75 26.8972 147.432 25.5351C146.115 24.1763 145.455 22.3715 145.455 20.1271C145.455 17.8383 146.128 15.9849 147.469 14.561C148.814 13.1372 150.565 12.4237 152.723 12.4237C153.635 12.4237 154.493 12.5817 155.296 12.8969C156.103 13.2097 156.789 13.6557 157.359 14.2318L157.36 14.231ZM160.47 12.608C160.679 12.6146 160.974 12.6286 161.355 12.6492C162.388 12.7043 163.074 12.7315 163.414 12.7315C163.85 12.7315 164.653 12.7002 165.82 12.6385C166.122 12.6245 166.348 12.6146 166.503 12.608V13.431C165.772 13.431 165.306 13.5306 165.1 13.7331C164.897 13.9323 164.794 14.4088 164.794 15.161V20.2258C166.242 18.9049 167.471 17.6004 168.487 16.3108C169.502 15.0203 170.01 14.2039 170.01 13.8648C170.01 13.6689 169.924 13.5356 169.76 13.4598C169.592 13.3882 169.241 13.3504 168.713 13.3504V12.6097C169.248 12.6434 169.694 12.6681 170.048 12.6854C170.405 12.7018 170.714 12.7126 170.975 12.7126C171.235 12.7126 171.547 12.7018 171.915 12.6854C172.279 12.6681 172.752 12.6442 173.336 12.6097V13.3504C172.845 13.3776 172.481 13.4327 172.241 13.5183C172.001 13.6006 171.768 13.7446 171.548 13.9545C171.373 14.1084 170.838 14.7363 169.938 15.8384C169.043 16.9437 168.23 17.9181 167.499 18.7691L172.351 25.4125C172.646 25.8207 172.955 26.1195 173.274 26.3088C173.597 26.4972 173.96 26.5902 174.369 26.5902H174.43L174.42 27.3935C173.682 27.3524 173.102 27.3285 172.677 27.3145C172.251 27.3005 171.895 27.2939 171.606 27.2939C171.373 27.2939 171.057 27.3005 170.663 27.3145C170.268 27.3285 169.626 27.3524 168.734 27.3935V26.5902C169.077 26.5837 169.328 26.5458 169.493 26.4734C169.658 26.4051 169.74 26.2981 169.74 26.1582C169.74 26.0857 169.713 25.9935 169.664 25.8866C169.612 25.7804 169.527 25.6364 169.407 25.4545L165.81 20.3995L164.794 21.2028V24.8603C164.794 25.6257 164.894 26.1022 165.097 26.2981C165.296 26.4931 165.766 26.5894 166.503 26.5894V27.3927C165.7 27.3515 165.072 27.3277 164.63 27.3137C164.184 27.2997 163.831 27.2931 163.566 27.2931C163.127 27.2931 162.643 27.2997 162.121 27.317C161.596 27.3342 161.051 27.3581 160.481 27.3927L160.47 26.5894C161.215 26.5894 161.685 26.4898 161.884 26.294C162.08 26.0948 162.18 25.6183 162.18 24.8594V15.1627C162.18 14.3973 162.08 13.924 161.884 13.7347C161.685 13.5463 161.215 13.4467 160.47 13.4327V12.6097L160.47 12.608ZM184.328 13.6582L184.489 12.8549H185.107C185.093 13.2837 185.079 13.6615 185.069 13.9907C185.059 14.3166 185.055 14.5915 185.055 14.8145C185.055 15.1511 185.058 15.5042 185.069 15.8787C185.079 16.2565 185.093 16.6614 185.107 17.0968H184.451C184.331 15.8647 183.95 14.9174 183.309 14.2557C182.67 13.5973 181.82 13.2673 180.753 13.2673C179.929 13.2673 179.26 13.5076 178.742 13.9841C178.228 14.4648 177.97 15.082 177.97 15.8408C177.97 16.4828 178.155 17.0005 178.527 17.3988C178.9 17.7938 179.721 18.2292 180.994 18.7033C182.946 19.4341 184.219 20.1205 184.817 20.7551C185.414 21.3929 185.712 22.2233 185.712 23.2496C185.712 24.5533 185.242 25.5969 184.306 26.3894C183.365 27.182 182.12 27.577 180.562 27.577C179.773 27.577 179.034 27.4462 178.349 27.1894C177.666 26.9285 177.017 26.5343 176.41 26.0092L176.155 27.0388H175.562C175.562 26.8059 175.565 26.4758 175.573 26.0545C175.593 25.2545 175.603 24.7401 175.603 24.5031C175.603 24.3039 175.597 23.8611 175.583 23.1788C175.569 22.764 175.562 22.4381 175.562 22.2011H176.279C176.358 23.629 176.763 24.7434 177.487 25.55C178.215 26.3532 179.179 26.754 180.377 26.754C181.255 26.754 181.952 26.5211 182.466 26.0503C182.985 25.5804 183.242 24.9426 183.242 24.1319C183.242 23.4941 183.046 22.9723 182.658 22.564C182.27 22.1558 181.556 21.7608 180.52 21.3764C180.393 21.332 180.197 21.2637 179.936 21.1773C178.608 20.7073 177.665 20.2645 177.099 19.8497C176.556 19.4547 176.161 19.0086 175.911 18.5082C175.664 18.0103 175.541 17.4136 175.541 16.7239C175.541 15.4129 175.979 14.3668 176.858 13.5907C177.736 12.8121 178.924 12.4245 180.417 12.4245C181.154 12.4245 181.851 12.5274 182.503 12.7298C183.158 12.9356 183.766 13.245 184.329 13.6598L184.328 13.6582Z" fill="#FF0000"/>
</svg>
